# xmcd CD database file
#
# Track frame offsets:
#	150
#	12822
#	26375
#	42060
#	53157
#	67342
#	81772
#	94737
#	109760
#	124057
#
# Disc length: 1828 seconds
#
# Revision: 2
# Processed by: cddbd v1.5.1PL0 Copyright (c) Steve Scherf et al.
# Submitted via: CDex 1.40Beta9
#
DISCID=7907220a
DTITLE=Various Artist - Country Greats - Baby's Got Her Blue Jeans On
DYEAR=1995
DGENRE=Country
TTITLE0=Eddy Raven - Who Do You Know In California
TTITLE1=Mel McDaniel - Baby's Got Her Blue Jeans On
TTITLE2=Janie Fricke - Always Have Always Will
TTITLE3=Johnny Rodriquez - Pass Me By
TTITLE4=Roy Clark - The Tips of My Fingers
TTITLE5=Mickey Gilley - You Don't Know Me
TTITLE6=Mel McDaniel - Big Ol' Brew
TTITLE7=Roy Clark - Yesterday When I Was Young
TTITLE8=Johnny Rodriquez - What's New in Old Mexico
TTITLE9=Roy Clark - Come Live With Me
EXTD=YEAR: 1995 ID3G: 2
EXTT0=
EXTT1=
EXTT2=
EXTT3=
EXTT4=
EXTT5=
EXTT6=
EXTT7=
EXTT8=
EXTT9=
PLAYORDER=
